<svg xmlns="http://www.w3.org/2000/svg" width="33" height="31" fill="none" viewBox="0 0 33 31">
  <mask id="a" width="33" height="31" x="0" y="0" fill="#000" maskUnits="userSpaceOnUse">
    <path fill="#fff" d="M0 0h33v31H0z"/>
    <path d="M12.177 30c9.81 0 15.177-10.389 15.177-19.397 0-.295 0-.59-.015-.882 1.044-.965 1.945-2.16 2.661-3.529a8.911 8.911 0 0 1-3.064 1.073c1.114-.852 1.947-2.192 2.345-3.77a9.42 9.42 0 0 1-3.387 1.654c-2.02-2.745-5.4-2.878-7.548-.296-1.385 1.665-1.973 4.146-1.543 6.514-4.289-.275-8.285-2.864-10.993-7.123-1.416 3.115-.693 7.1 1.651 9.1-.849-.032-1.68-.325-2.421-.853v.087c0 3.245 1.79 6.04 4.28 6.683a4.208 4.208 0 0 1-2.41.117c.7 2.777 2.702 4.68 4.985 4.734-1.89 1.897-4.223 2.927-6.625 2.924A8.52 8.52 0 0 1 4 26.937c2.44 2.001 5.278 3.062 8.177 3.057"/>
  </mask>
  <path fill="#B9B0D9" d="M12.177 29a1 1 0 1 0 0 2v-2ZM27.339 9.721l-.68-.734-.344.319.025.469.999-.054ZM30 6.192l.886.464 1.572-3.004-2.95 1.67.492.87Zm-3.064 1.073-.608-.794.757 1.783-.149-.989Zm2.345-3.77.97.244.697-2.764-2.271 1.722.604.797Zm-3.387 1.654-.805.593.398.54.651-.163-.244-.97Zm-7.548-.296.77.64-.77-.64Zm-1.543 6.514-.064.998 1.276.082-.228-1.259-.984.179ZM5.81 4.244l.843-.537-.99-1.557-.764 1.68.91.414Zm1.651 9.1-.038 1 2.877.108-2.19-1.868-.649.76Zm-2.421-.853.58-.814-1.58-1.126v1.94h1Zm0 .087h-1 1Zm4.28 6.683.329.944 3.119-1.087-3.198-.826-.25.968Zm-2.41.117.24-.971-1.615-.398.406 1.613.97-.244Zm4.985 4.734.708.705 1.643-1.65-2.328-.055-.023 1ZM5.27 27.036l-.003 1h.001l.002-1ZM4 26.937l.152-.988-3.608-.553 2.822 2.315.634-.774Zm8.178 4.057a1 1 0 0 0-.003-2l.003 2Zm-.002.006c5.308 0 9.383-2.825 12.092-6.753 2.696-3.909 4.086-8.962 4.086-13.644h-2c0 4.325-1.293 8.971-3.732 12.509C20.194 26.63 16.68 29 12.177 29v2Zm16.178-20.397c0-.29 0-.611-.017-.935l-1.997.107c.014.26.014.528.014.828h2Zm-.337-.147c1.136-1.05 2.104-2.338 2.87-3.8l-1.773-.927c-.668 1.276-1.501 2.377-2.454 3.258l1.357 1.469Zm1.49-5.134a7.911 7.911 0 0 1-2.72.954l.298 1.978a9.91 9.91 0 0 0 3.408-1.191l-.986-1.74ZM27.544 8.06c1.32-1.01 2.263-2.56 2.707-4.32l-1.94-.49c-.352 1.397-1.076 2.528-1.983 3.222l1.216 1.588Zm1.133-5.362A8.415 8.415 0 0 1 25.65 4.18l.488 1.94c1.334-.336 2.6-.958 3.747-1.828l-1.208-1.594Zm-1.978 1.86c-1.167-1.586-2.784-2.486-4.492-2.553-1.71-.067-3.379.707-4.63 2.21l1.538 1.279c.898-1.08 1.992-1.53 3.014-1.49 1.024.04 2.106.579 2.96 1.739l1.61-1.186Zm-9.121-.344c-1.598 1.92-2.235 4.71-1.759 7.333l1.968-.358c-.384-2.113.154-4.285 1.328-5.695l-1.537-1.28Zm-.71 6.156c-3.912-.251-7.643-2.619-10.215-6.662L4.966 4.78c2.846 4.476 7.107 7.286 11.773 7.585l.128-1.996ZM4.898 3.829c-1.572 3.46-.82 7.945 1.913 10.276l1.298-1.521c-1.956-1.67-2.65-5.156-1.39-7.926L4.9 3.83Zm2.6 8.516c-.64-.024-1.284-.245-1.879-.668l-1.16 1.629c.889.633 1.905.998 2.963 1.038l.076-1.999Zm-3.459.146v.087h2v-.087h-2Zm0 .087c0 3.541 1.962 6.858 5.03 7.65l.5-1.936c-1.91-.493-3.53-2.766-3.53-5.715h-2Zm4.95 5.738a3.21 3.21 0 0 1-1.84.09l-.478 1.943c.99.243 2.01.192 2.977-.144l-.658-1.889ZM5.94 19.622c.772 3.066 3.063 5.421 5.93 5.49l.047-2c-1.697-.04-3.411-1.49-4.037-3.978l-1.94.488Zm5.245 3.784c-1.725 1.733-3.81 2.633-5.915 2.63l-.003 2c2.7.003 5.282-1.156 7.335-3.219l-1.417-1.41Zm-5.914 2.63a7.534 7.534 0 0 1-1.12-.087l-.304 1.977c.471.072.945.109 1.42.11l.004-2Zm-1.906 1.675c2.602 2.134 5.66 3.289 8.812 3.284l-.003-2c-2.646.004-5.264-.963-7.54-2.83l-1.27 1.546Z" mask="url(#a)"/>
</svg>
